<svg xmlns="http://www.w3.org/2000/svg" width="41" height="41" viewBox="0 0 41 41">
  <path id="Subtraction_1" data-name="Subtraction 1" d="M20.5,41a20.652,20.652,0,0,1-4.131-.416A20.388,20.388,0,0,1,9.038,37.5,20.56,20.56,0,0,1,1.611,28.48,20.4,20.4,0,0,1,.416,24.631a20.7,20.7,0,0,1,0-8.263A20.388,20.388,0,0,1,3.5,9.038,20.56,20.56,0,0,1,12.52,1.611,20.4,20.4,0,0,1,16.369.416a20.7,20.7,0,0,1,8.263,0A20.388,20.388,0,0,1,31.962,3.5a20.56,20.56,0,0,1,7.427,9.019,20.4,20.4,0,0,1,1.195,3.848,20.7,20.7,0,0,1,0,8.263,20.388,20.388,0,0,1-3.085,7.33,20.56,20.56,0,0,1-9.019,7.427,20.4,20.4,0,0,1-3.848,1.195A20.652,20.652,0,0,1,20.5,41ZM13.988,17.343v4.647h2.845V36h4.6V21.991h4.623l.734-4.647H21.437V15.014a3.974,3.974,0,0,1,.089-.884,2.1,2.1,0,0,1,.326-.758,1.6,1.6,0,0,1,.652-.53,2.588,2.588,0,0,1,1.066-.2h3.483V8.007H22.116a7.558,7.558,0,0,0-1.419.125,5.09,5.09,0,0,0-1.158.362A3.918,3.918,0,0,0,17.918,9.85a4.889,4.889,0,0,0-.508.954,6.878,6.878,0,0,0-.335,1.111,12.359,12.359,0,0,0-.242,2.616v2.812Z" fill="#ffe3b7"/>
</svg>
