<svg id="instagram_2_" data-name="instagram (2)" xmlns="http://www.w3.org/2000/svg" width="47.156" height="47.156" viewBox="0 0 47.156 47.156">
  <path id="Path_77" data-name="Path 77" d="M216.026,211.513A4.513,4.513,0,1,1,211.513,207,4.513,4.513,0,0,1,216.026,211.513Zm0,0" transform="translate(-187.935 -187.935)" fill="#98772e"/>
  <path id="Path_78" data-name="Path 78" d="M157.138,138.6a4.483,4.483,0,0,0-2.57-2.57,7.49,7.49,0,0,0-2.514-.466c-1.428-.065-1.856-.079-5.471-.079s-4.043.014-5.471.079a7.5,7.5,0,0,0-2.514.466,4.485,4.485,0,0,0-2.57,2.57,7.493,7.493,0,0,0-.466,2.514c-.065,1.428-.079,1.856-.079,5.471s.014,4.043.079,5.471a7.491,7.491,0,0,0,.466,2.514,4.483,4.483,0,0,0,2.57,2.57,7.482,7.482,0,0,0,2.514.466c1.428.065,1.855.079,5.471.079s4.044-.014,5.471-.079a7.481,7.481,0,0,0,2.514-.466,4.483,4.483,0,0,0,2.57-2.57,7.5,7.5,0,0,0,.466-2.514c.065-1.428.079-1.856.079-5.471s-.014-4.043-.079-5.471A7.481,7.481,0,0,0,157.138,138.6ZM146.584,153.54a6.952,6.952,0,1,1,6.952-6.952A6.952,6.952,0,0,1,146.584,153.54Zm7.227-12.555a1.625,1.625,0,1,1,1.625-1.625A1.625,1.625,0,0,1,153.811,140.985Zm0,0" transform="translate(-123.006 -123.01)" fill="#98772e"/>
  <path id="Path_79" data-name="Path 79" d="M23.578,0A23.578,23.578,0,1,0,47.156,23.578,23.581,23.581,0,0,0,23.578,0ZM37.035,29.16a9.933,9.933,0,0,1-.629,3.287,6.923,6.923,0,0,1-3.96,3.96,9.94,9.94,0,0,1-3.286.629c-1.444.066-1.905.082-5.582.082S19.44,37.1,18,37.035a9.94,9.94,0,0,1-3.286-.629,6.923,6.923,0,0,1-3.96-3.96,9.931,9.931,0,0,1-.629-3.286c-.067-1.444-.082-1.905-.082-5.582s.015-4.138.082-5.582a9.934,9.934,0,0,1,.629-3.287,6.927,6.927,0,0,1,3.96-3.96A9.942,9.942,0,0,1,18,10.121c1.444-.066,1.905-.082,5.582-.082s4.138.016,5.582.082a9.945,9.945,0,0,1,3.287.629,6.925,6.925,0,0,1,3.96,3.96A9.932,9.932,0,0,1,37.036,18c.066,1.444.081,1.905.081,5.582S37.1,27.716,37.035,29.16Zm0,0" fill="#98772e"/>
</svg>
