<svg xmlns="http://www.w3.org/2000/svg" viewBox="0 0 367.2 146.87"><defs><style>.cls-1{fill:#fff;}</style></defs><title>logo</title><g id="Слой_2" data-name="Слой 2"><g id="Слой_1-2" data-name="Слой 1"><path class="cls-1" d="M0,34.19A32.12,32.12,0,0,1,4.38,17.93a32.86,32.86,0,0,1,5-6.53,31.39,31.39,0,0,1,6.51-5,33.41,33.41,0,0,1,7.69-3.25,32.36,32.36,0,0,1,17.1,0A33.41,33.41,0,0,1,48.4,6.37,32.24,32.24,0,0,1,60,17.93a32.92,32.92,0,0,1,3.24,7.71,31.69,31.69,0,0,1,1.16,8.59,31.24,31.24,0,0,1-1.16,8.55A33.16,33.16,0,0,1,60,50.45a31.38,31.38,0,0,1-5,6.5,32,32,0,0,1-6.52,5,32.48,32.48,0,0,1-7.69,3.22A32.25,32.25,0,0,1,15.88,62a32.58,32.58,0,0,1-6.51-5A32,32,0,0,1,0,34.19Zm12.17-.09a20.64,20.64,0,0,0,1.54,8,20.29,20.29,0,0,0,4.21,6.45,20,20,0,0,0,6.32,4.34,19.37,19.37,0,0,0,7.9,1.6A19.23,19.23,0,0,0,40,52.85a20.37,20.37,0,0,0,6.34-4.34,20,20,0,0,0,4.24-6.45,21.34,21.34,0,0,0,0-15.87A20,20,0,0,0,40,15.36a19.23,19.23,0,0,0-7.85-1.6,19.37,19.37,0,0,0-7.9,1.6,19.78,19.78,0,0,0-6.32,4.36A20.64,20.64,0,0,0,12.17,34.1Z"/><path class="cls-1" d="M77,4.83c0-1.32.64-2,1.9-2h23.92a18.37,18.37,0,0,1,7.84,1.66A19.58,19.58,0,0,1,116.82,9a20.42,20.42,0,0,1,5.45,13.9,19.89,19.89,0,0,1-1.41,7.39,20.21,20.21,0,0,1-4,6.32A19.51,19.51,0,0,1,110.8,41,18,18,0,0,1,103,42.65H89.17V63.59c0,1.2-.63,1.81-1.89,1.81H78.84A1.62,1.62,0,0,1,77,63.59Zm33,18a8.94,8.94,0,0,0-.67-3.39,9.64,9.64,0,0,0-1.86-3,9.42,9.42,0,0,0-2.83-2.09,8.1,8.1,0,0,0-3.58-.8H89.17V32H101a8.31,8.31,0,0,0,3.54-.76,9,9,0,0,0,2.85-2.05,9.58,9.58,0,0,0,1.88-2.95A9.22,9.22,0,0,0,110,22.79Z"/><path class="cls-1" d="M134.66,4.87c0-1.35.61-2,1.85-2h40.6a1.86,1.86,0,0,1,1.56.61A2.51,2.51,0,0,1,179.14,5v7.44A1.93,1.93,0,0,1,177,14.39H147.08V27.15h23.08a1.74,1.74,0,0,1,1.35.36A1.91,1.91,0,0,1,172,29v7.62A2.26,2.26,0,0,1,171.6,38a1.55,1.55,0,0,1-1.35.59H147.08V53.86h31a1.9,1.9,0,0,1,1.56.5,2.6,2.6,0,0,1,.38,1.57v7.69c0,1.19-.62,1.78-1.85,1.78h-41.7A2.12,2.12,0,0,1,135.2,65a1.6,1.6,0,0,1-.54-1.35Z"/><path class="cls-1" d="M192.19,4.75a1.92,1.92,0,0,1,.49-1.35A1.71,1.71,0,0,1,194,2.85h9.69a2.4,2.4,0,0,1,1.12.27,2.77,2.77,0,0,1,1,.87l14.28,20.4q7.06,10.14,14.27,20.41V4.45A1.91,1.91,0,0,1,235,3.27a1.83,1.83,0,0,1,1.22-.42h8.13a2.19,2.19,0,0,1,1.45.51,1.63,1.63,0,0,1,.61,1.34v59c0,1.15-.66,1.73-2,1.73h-9.14a2.21,2.21,0,0,1-1.73-1.14q-7.41-10.74-14.76-21.46T204.07,21.3V63.55a2,2,0,0,1-.44,1.39,2.07,2.07,0,0,1-1.5.46H194a1.82,1.82,0,0,1-1.41-.49,1.9,1.9,0,0,1-.44-1.32Z"/><path class="cls-1" d="M2.44,85.37c0-1.32.63-2,1.9-2H30.68a17.46,17.46,0,0,1,6.88,1.37,17.88,17.88,0,0,1,5.6,3.73A17.45,17.45,0,0,1,48.27,101a16.44,16.44,0,0,1-4.59,11.54,17.9,17.9,0,0,1,3.12,2.91,20.09,20.09,0,0,1,2.39,3.53,18.7,18.7,0,0,1,1.56,4,17.12,17.12,0,0,1,.55,4.35,18.24,18.24,0,0,1-1.41,7.12,19.62,19.62,0,0,1-3.83,5.94,18,18,0,0,1-5.71,4.07,16.86,16.86,0,0,1-7,1.49h-29A2.09,2.09,0,0,1,3,145.5a1.69,1.69,0,0,1-.53-1.37Zm33.66,15.8a7.77,7.77,0,0,0-.57-3,7.13,7.13,0,0,0-4-4,8.22,8.22,0,0,0-3.1-.57H14.62v15.25H28.29a8.18,8.18,0,0,0,3.12-.59,7.36,7.36,0,0,0,4.1-4.07A7.89,7.89,0,0,0,36.1,101.17ZM38.83,127a7.92,7.92,0,0,0-.5-2.8,8.8,8.8,0,0,0-1.39-2.47,8.05,8.05,0,0,0-2.11-1.83,7.84,7.84,0,0,0-2.66-1l-1.71-.23a14.55,14.55,0,0,0-1.75-.11H14.62v17.11H28.71c.59,0,1.17,0,1.73-.07a14.27,14.27,0,0,0,1.69-.23,6.78,6.78,0,0,0,2.65-1,8.39,8.39,0,0,0,2.14-1.89A9.05,9.05,0,0,0,38.33,130,8.66,8.66,0,0,0,38.83,127Z"/><path class="cls-1" d="M60.74,85.37c0-1.32.61-2,1.85-2H88.37a20,20,0,0,1,8,1.6,20.91,20.91,0,0,1,6.46,4.34,20.08,20.08,0,0,1,4.34,6.45,19.73,19.73,0,0,1,1.58,7.87,19.21,19.21,0,0,1-.8,5.56,20,20,0,0,1-2.23,4.93,20.34,20.34,0,0,1-7.79,7.2l11,21.61a3.11,3.11,0,0,0,.29.84,2,2,0,0,1,.21.89q0,1.26-1.47,1.26H98.1a2,2,0,0,1-2-1.56l-10.2-20.21c-.45,0-.93,0-1.45,0l-2.15,0H73v19.92c0,1.21-.64,1.81-1.93,1.81H62.59a2,2,0,0,1-1.35-.44,1.74,1.74,0,0,1-.5-1.37Zm35.5,18.35a9.4,9.4,0,0,0-.67-3.51A9.84,9.84,0,0,0,90.77,95a9.46,9.46,0,0,0-3.67-1l-2.88-.07-2.93,0H73v19.55h12.7a14.92,14.92,0,0,0,1.58-.09,9.77,9.77,0,0,0,3.65-.92,9,9,0,0,0,2.84-2.12,9.92,9.92,0,0,0,2.48-6.62Z"/><path class="cls-1" d="M247.67,114.73a30.64,30.64,0,0,1-1.14,8.4,31.34,31.34,0,0,1-3.2,7.5,30.89,30.89,0,0,1-11.39,11.12,32.39,32.39,0,0,1-16.1,4.19H195.61a2.6,2.6,0,0,1-1.35-.34,1.51,1.51,0,0,1-.59-1.43V85.37a1.73,1.73,0,0,1,1.94-2h20.23a32,32,0,0,1,12.5,2.43,31.63,31.63,0,0,1,10.1,6.65,31.17,31.17,0,0,1,6.76,9.94A30.64,30.64,0,0,1,247.67,114.73ZM205.84,94.94V134.4h4q3.16,0,6.32-.12a20.41,20.41,0,0,0,7.71-1.71,19.83,19.83,0,0,0,6.13-4.24,19.09,19.09,0,0,0,4-6.22,20,20,0,0,0,1.46-7.65,19.62,19.62,0,0,0-1.58-7.95,18.9,18.9,0,0,0-4.32-6.18,19.58,19.58,0,0,0-6.4-4,21.55,21.55,0,0,0-7.8-1.41Z"/><path class="cls-1" d="M298,119.79a1.9,1.9,0,0,1,.47-1.35,1.78,1.78,0,0,1,1.39-.51h6.86a2.11,2.11,0,0,1,1.35.51,1.62,1.62,0,0,1,.63,1.35v19.33a2,2,0,0,1-.25,1,2.56,2.56,0,0,1-.93.88s0,0,0,0,0,0,0,0a29.71,29.71,0,0,1-4.26,2.49,31.25,31.25,0,0,1-4.76,1.83,38.74,38.74,0,0,1-5.09,1.14,35.32,35.32,0,0,1-5.23.4,32.06,32.06,0,0,1-8.55-1.14,31.54,31.54,0,0,1-7.68-3.24A32.65,32.65,0,0,1,260.39,131a31.28,31.28,0,0,1-3.25-7.67,32.91,32.91,0,0,1,0-17.1,31.51,31.51,0,0,1,3.25-7.68,32.57,32.57,0,0,1,5-6.53,32,32,0,0,1,6.51-5.06,32.58,32.58,0,0,1,7.69-3.26,31.44,31.44,0,0,1,8.57-1.16,34.21,34.21,0,0,1,6,.53,31.35,31.35,0,0,1,5.75,1.58c.7.28,1.53.63,2.5,1a25.41,25.41,0,0,1,2.76,1.39,12.94,12.94,0,0,1,2.21,1.56,2.17,2.17,0,0,1,.91,1.55,2.82,2.82,0,0,1-.38,1.08c-.25.49-.57,1-.95,1.66s-.81,1.26-1.28,1.92-.94,1.26-1.39,1.79-.86,1-1.22,1.33-.65.52-.85.52a2.2,2.2,0,0,1-.61-.1,2.31,2.31,0,0,1-.73-.4,22.76,22.76,0,0,0-6-3,21.49,21.49,0,0,0-6.78-1.1,19.93,19.93,0,0,0-14.7,6.24,21.29,21.29,0,0,0-5.73,14.57,20.24,20.24,0,0,0,1.63,8.07,21.23,21.23,0,0,0,4.38,6.57,20.45,20.45,0,0,0,6.46,4.42,20.14,20.14,0,0,0,10.95,1.39,25.11,25.11,0,0,0,2.85-.59,18.91,18.91,0,0,0,2.38-.8,11.91,11.91,0,0,0,1.72-.86Z"/><path class="cls-1" d="M321.8,85.42c0-1.35.62-2,1.85-2h40.6a1.83,1.83,0,0,1,1.56.62,2.48,2.48,0,0,1,.47,1.54V93a2,2,0,0,1-.53,1.35,2,2,0,0,1-1.58.6H334.22V107.7H357.3a1.66,1.66,0,0,1,1.35.36,1.88,1.88,0,0,1,.51,1.49v7.62a2.26,2.26,0,0,1-.42,1.35,1.53,1.53,0,0,1-1.35.59H334.22V134.4h31a1.85,1.85,0,0,1,1.55.51,2.56,2.56,0,0,1,.38,1.56v7.7c0,1.18-.61,1.77-1.85,1.77h-41.7a2.07,2.07,0,0,1-1.3-.42,1.58,1.58,0,0,1-.55-1.35Z"/><path class="cls-1" d="M182.12,133.77a2,2,0,0,1,1.31.46,1.73,1.73,0,0,1,.54,1.39V144a2.13,2.13,0,0,1-.5,1.34,1.65,1.65,0,0,1-1.35.63H123.28c-1.24,0-1.86-.66-1.86-2v-8.35a1.64,1.64,0,0,1,1.86-1.85Z"/><path class="cls-1" d="M262.48,14a1.54,1.54,0,0,1-.17.38.39.39,0,0,1-.34.13h-1.29a.46.46,0,0,1-.53-.51v-13A.46.46,0,0,1,260.3.7a.49.49,0,0,1,.35-.15h1.4a.54.54,0,0,1,.4.15.48.48,0,0,1,.14.36V5A4.83,4.83,0,0,1,264,4a4.23,4.23,0,0,1,1.82-.38A5.25,5.25,0,0,1,268,4a5.46,5.46,0,0,1,1.72,1.19,5.65,5.65,0,0,1,1.57,4,5.59,5.59,0,0,1-.42,2.17,5.49,5.49,0,0,1-2.87,3,5.25,5.25,0,0,1-2.14.43,3.82,3.82,0,0,1-1-.11,4.06,4.06,0,0,1-.87-.3,5,5,0,0,1-.78-.45,6.08,6.08,0,0,1-.66-.56Zm6.38-4.87a3.5,3.5,0,0,0-.24-1.28A3.32,3.32,0,0,0,268,6.81a3.18,3.18,0,0,0-1-.74,2.79,2.79,0,0,0-1.25-.28,3,3,0,0,0-1.28.28,3.44,3.44,0,0,0-1.74,1.81,3.33,3.33,0,0,0-.26,1.28v.06a3.31,3.31,0,0,0,.27,1.26,3.43,3.43,0,0,0,.71,1,3.19,3.19,0,0,0,1,.7,3,3,0,0,0,1.27.26,3.07,3.07,0,0,0,1.25-.26,3.25,3.25,0,0,0,1-.71,3.39,3.39,0,0,0,.66-1.06A3.52,3.52,0,0,0,268.86,9.16Z"/><path class="cls-1" d="M274.48,9.16a5.7,5.7,0,0,1,.2-1.49,5.09,5.09,0,0,1,.57-1.33,5.32,5.32,0,0,1,.87-1.13,5.58,5.58,0,0,1,1.13-.87,5.84,5.84,0,0,1,1.33-.56,5.54,5.54,0,0,1,2.95,0,5.84,5.84,0,0,1,1.33.56,5.58,5.58,0,0,1,1.13.87,5.32,5.32,0,0,1,.87,1.13,5.42,5.42,0,0,1,.56,1.33,5.3,5.3,0,0,1,.2,1.49,5.26,5.26,0,0,1-.2,1.49,5.59,5.59,0,0,1-.56,1.33A5.52,5.52,0,0,1,284,13.1a5.58,5.58,0,0,1-1.13.87,5.42,5.42,0,0,1-1.33.56,5.54,5.54,0,0,1-2.95,0,5.42,5.42,0,0,1-1.33-.56,5.58,5.58,0,0,1-1.13-.87,5.52,5.52,0,0,1-.87-1.12,5.24,5.24,0,0,1-.57-1.33A5.64,5.64,0,0,1,274.48,9.16Zm2.4,0a3.52,3.52,0,0,0,.24,1.29,3.06,3.06,0,0,0,.66,1.06,3.25,3.25,0,0,0,1,.71,3.13,3.13,0,0,0,1.27.26,3,3,0,0,0,1.25-.26,3.2,3.2,0,0,0,1-.71,3.56,3.56,0,0,0,.65-1.06,3.7,3.7,0,0,0,0-2.57,3.48,3.48,0,0,0-.65-1.07,3.14,3.14,0,0,0-1-.74,2.76,2.76,0,0,0-1.25-.28,2.85,2.85,0,0,0-1.27.28,3.18,3.18,0,0,0-1,.74,3,3,0,0,0-.66,1.07A3.5,3.5,0,0,0,276.88,9.16Z"/><path class="cls-1" d="M298.65,14.21a.17.17,0,0,1-.06.14.33.33,0,0,1-.16.07.64.64,0,0,1-.2,0h-1.06a.43.43,0,0,1-.36-.15.83.83,0,0,1-.16-.36l-.1-.78a2.87,2.87,0,0,1-.46.54,3,3,0,0,1-.67.46,3.94,3.94,0,0,1-.88.32,4.75,4.75,0,0,1-1.12.12,4.21,4.21,0,0,1-1.79-.36,3.71,3.71,0,0,1-1.29-1,4.34,4.34,0,0,1-.79-1.47,6,6,0,0,1-.28-1.83V4.29a.62.62,0,0,1,.15-.46.52.52,0,0,1,.42-.16h1.29a.59.59,0,0,1,.45.13.64.64,0,0,1,.12.45V9.91a2.93,2.93,0,0,0,.13.88,2.54,2.54,0,0,0,.43.77,2.12,2.12,0,0,0,.7.54,2.15,2.15,0,0,0,1,.2,2.63,2.63,0,0,0,.81-.13,2.32,2.32,0,0,0,.77-.42,2.2,2.2,0,0,0,.58-.7,2.06,2.06,0,0,0,.23-1V4.56c0-.1,0-.21,0-.31a1,1,0,0,1,.07-.29.57.57,0,0,1,.15-.21.46.46,0,0,1,.27-.08h1.4a.53.53,0,0,1,.41.13.55.55,0,0,1,.14.39V14A.29.29,0,0,1,298.65,14.21Z"/><path class="cls-1" d="M306.74,14.54a4.26,4.26,0,0,1-1.26-.21,3.2,3.2,0,0,1-1-.56,2.71,2.71,0,0,1-.69-.91,2.85,2.85,0,0,1-.25-1.23V5.89h-1a.51.51,0,0,1-.37-.11.46.46,0,0,1-.12-.36V4.2a.45.45,0,0,1,.12-.35.63.63,0,0,1,.37-.1h1V2a.37.37,0,0,1,.11-.27,1,1,0,0,1,.33-.17l.35-.12a4.13,4.13,0,0,1,.42-.14,3.31,3.31,0,0,1,.42-.12,1.55,1.55,0,0,1,.34,0c.17,0,.29,0,.34.14a.82.82,0,0,1,.08.38V2.69c0,.35,0,.71,0,1.06h1.23a.47.47,0,0,1,.34.12.5.5,0,0,1,.11.36V5.39a.59.59,0,0,1-.11.39.51.51,0,0,1-.34.11h-1.23V7.5c0,.2,0,.38,0,.55v2.2a.08.08,0,0,0,0,0V11.4a1.23,1.23,0,0,0,.22.81.91.91,0,0,0,.72.25.35.35,0,0,1,.28.12.48.48,0,0,1,.1.31v1.18a.45.45,0,0,1-.12.34A.46.46,0,0,1,306.74,14.54Z"/><path class="cls-1" d="M311,.51a.45.45,0,0,1,.5-.51h1.43a.53.53,0,0,1,.38.13.46.46,0,0,1,.15.38V1.78a.59.59,0,0,1-.14.37.45.45,0,0,1-.38.18h-1.43c-.34,0-.51-.19-.51-.55Zm0,3.76a.52.52,0,0,1,.13-.37.45.45,0,0,1,.37-.15h1.41a.65.65,0,0,1,.19,0,.54.54,0,0,1,.18.11.66.66,0,0,1,.12.17.36.36,0,0,1,.06.2V14q0,.51-.54.51h-1.41A.45.45,0,0,1,311,14Z"/><path class="cls-1" d="M328.22,3.8a.51.51,0,0,1,.23.15.47.47,0,0,1,.08.28V17.32a.45.45,0,0,1-.17.36.6.6,0,0,1-.35.14h-1.42a.5.5,0,0,1-.39-.15.51.51,0,0,1-.12-.35V13.2a7.35,7.35,0,0,1-.65.59,4.79,4.79,0,0,1-.75.48,4.34,4.34,0,0,1-.87.33,3.85,3.85,0,0,1-1,.12,5.29,5.29,0,0,1-2.14-.44A5.39,5.39,0,0,1,319,13.09,5.77,5.77,0,0,1,317.81,7,5.49,5.49,0,0,1,319,5.19,5.56,5.56,0,0,1,320.7,4a5.28,5.28,0,0,1,2.14-.43,3.4,3.4,0,0,1,1,.14,4.57,4.57,0,0,1,.91.37,4.85,4.85,0,0,1,.79.55,6.68,6.68,0,0,1,.66.64l.19-1a.74.74,0,0,1,.14-.37.43.43,0,0,1,.36-.14H328A1,1,0,0,1,328.22,3.8ZM319.8,9.14a3.52,3.52,0,0,0,.24,1.29,3.66,3.66,0,0,0,.67,1.07,3.31,3.31,0,0,0,1,.73,2.88,2.88,0,0,0,1.24.27,3.06,3.06,0,0,0,1.28-.27,3.35,3.35,0,0,0,1.75-1.8,3.34,3.34,0,0,0,.26-1.29V9.08a3.39,3.39,0,0,0-2-3A3.12,3.12,0,0,0,323,5.81a2.88,2.88,0,0,0-1.24.27,3,3,0,0,0-1,.72A3.48,3.48,0,0,0,320,7.86,3.43,3.43,0,0,0,319.8,9.14Z"/><path class="cls-1" d="M342.07,14.21a.15.15,0,0,1-.07.14.26.26,0,0,1-.15.07.71.71,0,0,1-.21,0h-1.05a.42.42,0,0,1-.36-.15,1,1,0,0,1-.17-.36l-.09-.78a2.6,2.6,0,0,1-.47.54,2.76,2.76,0,0,1-.66.46,3.94,3.94,0,0,1-.88.32,4.75,4.75,0,0,1-1.12.12,4.21,4.21,0,0,1-1.79-.36,3.71,3.71,0,0,1-1.29-1,4.54,4.54,0,0,1-.8-1.47,6,6,0,0,1-.27-1.83V4.29a.62.62,0,0,1,.15-.46.5.5,0,0,1,.41-.16h1.29a.6.6,0,0,1,.46.13.64.64,0,0,1,.11.45V9.91a2.94,2.94,0,0,0,.14.88,2.74,2.74,0,0,0,.42.77,2.22,2.22,0,0,0,.7.54,2.17,2.17,0,0,0,1,.2,2.65,2.65,0,0,0,.82-.13,2.37,2.37,0,0,0,1.35-1.12,2.06,2.06,0,0,0,.23-1V4.56c0-.1,0-.21,0-.31a1,1,0,0,1,.07-.29.57.57,0,0,1,.15-.21.46.46,0,0,1,.27-.08h1.4a.55.55,0,0,1,.41.13.54.54,0,0,1,.13.39V14A.28.28,0,0,1,342.07,14.21Z"/><path class="cls-1" d="M355.1,13.35a6.12,6.12,0,0,1-1.63,1,5.13,5.13,0,0,1-2,.37,5.73,5.73,0,0,1-4-1.63,5.52,5.52,0,0,1-1.23-1.77,5.29,5.29,0,0,1-.46-2.18,5.75,5.75,0,0,1,.72-2.78,5.44,5.44,0,0,1,.84-1.13,4.89,4.89,0,0,1,1.1-.88,5.31,5.31,0,0,1,1.31-.57,5.71,5.71,0,0,1,1.5-.2,5.54,5.54,0,0,1,1.28.16,5,5,0,0,1,1.19.45,5.26,5.26,0,0,1,1.06.7,5.08,5.08,0,0,1,.86.93,5,5,0,0,1,.75,1.53,6.54,6.54,0,0,1,.24,1.83c0,.16,0,.3,0,.41a.55.55,0,0,1-.11.27.48.48,0,0,1-.25.15,2.09,2.09,0,0,1-.48,0h-7.53a2.82,2.82,0,0,0,.42,1.09,3.1,3.1,0,0,0,1.66,1.29,3.17,3.17,0,0,0,1,.16,3.64,3.64,0,0,0,.74-.07,3.3,3.3,0,0,0,.65-.21,3.39,3.39,0,0,0,.57-.29,3.31,3.31,0,0,0,.45-.34h0a1.3,1.3,0,0,1,.2-.15.33.33,0,0,1,.19-.06.49.49,0,0,1,.18,0,1,1,0,0,1,.19.18l.39.46.26.32a.86.86,0,0,1,.15.22.41.41,0,0,1,.05.18A.64.64,0,0,1,355.1,13.35Zm-3.77-7.66a2.69,2.69,0,0,0-1,.18,3.13,3.13,0,0,0-.87.5,3,3,0,0,0-.69.74,2.92,2.92,0,0,0-.43.91h6a3.31,3.31,0,0,0-.41-.94,3.17,3.17,0,0,0-.67-.74,2.83,2.83,0,0,0-.89-.48A3.4,3.4,0,0,0,351.33,5.69Z"/><path class="cls-1" d="M268.48,38.79a7.46,7.46,0,0,1-.66.56,5.35,5.35,0,0,1-.77.45,4.35,4.35,0,0,1-.88.3,3.82,3.82,0,0,1-1,.11,5.25,5.25,0,0,1-2.14-.43,5.49,5.49,0,0,1-2.87-3,5.84,5.84,0,0,1,0-4.35,5.69,5.69,0,0,1,1.15-1.77,5.46,5.46,0,0,1,1.72-1.19,5.25,5.25,0,0,1,2.14-.44,4.31,4.31,0,0,1,1.82.37,4.68,4.68,0,0,1,1.41,1v-3.9a.48.48,0,0,1,.13-.36A.5.5,0,0,1,269,26h1.4a.56.56,0,0,1,.36.14.48.48,0,0,1,.17.37v13q0,.51-.54.51h-1.28a.4.4,0,0,1-.34-.13,1.35,1.35,0,0,1-.18-.38Zm-6.31-4.15a3.52,3.52,0,0,0,.24,1.29,3.39,3.39,0,0,0,.66,1.06,3.13,3.13,0,0,0,1,.71,3.18,3.18,0,0,0,2.52,0,3.19,3.19,0,0,0,1-.7,3.4,3.4,0,0,0,.7-1,3.31,3.31,0,0,0,.28-1.26v-.06a3.29,3.29,0,0,0-.26-1.28,3.4,3.4,0,0,0-.69-1.07,3.46,3.46,0,0,0-1-.74,3,3,0,0,0-1.29-.28,2.76,2.76,0,0,0-1.25.28,3.07,3.07,0,0,0-1,.74,3.32,3.32,0,0,0-.66,1.07A3.46,3.46,0,0,0,262.17,34.64Z"/><path class="cls-1" d="M274.88,26a.45.45,0,0,1,.5-.51h1.43a.53.53,0,0,1,.38.13.46.46,0,0,1,.15.38v1.27a.59.59,0,0,1-.14.37.45.45,0,0,1-.38.18h-1.43c-.34,0-.51-.19-.51-.55Zm0,3.76a.52.52,0,0,1,.13-.37.45.45,0,0,1,.37-.15h1.41a.43.43,0,0,1,.19,0,.54.54,0,0,1,.18.11.52.52,0,0,1,.12.17.36.36,0,0,1,.06.2v9.76q0,.51-.54.51h-1.41a.45.45,0,0,1-.51-.51Z"/><path class="cls-1" d="M290.07,39.25a1.25,1.25,0,0,0,.05-.36c0-.14,0-.27,0-.38a7.45,7.45,0,0,1-.65.6,4.75,4.75,0,0,1-.74.49,4.1,4.1,0,0,1-.87.32,4,4,0,0,1-1,.12,5.4,5.4,0,0,1-2.77-.72,5.2,5.2,0,0,1-1.09-.84,5.61,5.61,0,0,1-.85-1.09,5.82,5.82,0,0,1-.54-1.31,5.86,5.86,0,0,1,0-3,6,6,0,0,1,.54-1.33,5.8,5.8,0,0,1,.85-1.12,5.34,5.34,0,0,1,1.09-.87,5.45,5.45,0,0,1,1.31-.56,5,5,0,0,1,1.46-.2,4.78,4.78,0,0,1,1,.11,4.38,4.38,0,0,1,.9.33,4.51,4.51,0,0,1,.78.5,4.46,4.46,0,0,1,.67.63c0-.15.05-.31.07-.45s0-.3.05-.45a1,1,0,0,1,.15-.37.44.44,0,0,1,.37-.13H292a.51.51,0,0,1,.35.13.45.45,0,0,1,.14.36v8.66a5.92,5.92,0,0,1-.45,2.41,4.64,4.64,0,0,1-1.22,1.7,5,5,0,0,1-1.79,1,7.08,7.08,0,0,1-2.17.33,5.4,5.4,0,0,1-1-.08,6.26,6.26,0,0,1-.95-.23,6.37,6.37,0,0,1-.89-.36,5.45,5.45,0,0,1-.78-.49.73.73,0,0,1-.18-.17.46.46,0,0,1-.05-.38.63.63,0,0,1,.08-.17l.64-.92a1.35,1.35,0,0,1,.17-.17.34.34,0,0,1,.17-.05l.15,0a.7.7,0,0,1,.19.1,1.86,1.86,0,0,0,.5.31,4.21,4.21,0,0,0,.63.2,5.19,5.19,0,0,0,.65.11,4.38,4.38,0,0,0,.59,0,4.7,4.7,0,0,0,1.2-.16,3.67,3.67,0,0,0,1-.47,2.71,2.71,0,0,0,.73-.74A2,2,0,0,0,290.07,39.25Zm-6.26-4.65a3.63,3.63,0,0,0,.23,1.28,3.18,3.18,0,0,0,.67,1.07,3.11,3.11,0,0,0,1,.73A2.94,2.94,0,0,0,287,38a3,3,0,0,0,1.26-.27A3.33,3.33,0,0,0,290,35.93a3.3,3.3,0,0,0,.27-1.25v-.14a3.39,3.39,0,0,0-.27-1.26,3.53,3.53,0,0,0-.7-1,3.26,3.26,0,0,0-1-.71,3,3,0,0,0-1.26-.27,2.94,2.94,0,0,0-1.26.27,3.11,3.11,0,0,0-1,.73,3.24,3.24,0,0,0-.67,1.06A3.67,3.67,0,0,0,283.81,34.6Z"/><path class="cls-1" d="M296.74,26a.45.45,0,0,1,.5-.51h1.43a.53.53,0,0,1,.38.13.49.49,0,0,1,.14.38v1.27a.58.58,0,0,1-.13.37.46.46,0,0,1-.39.18h-1.42c-.34,0-.51-.19-.51-.55Zm0,3.76a.52.52,0,0,1,.13-.37.45.45,0,0,1,.37-.15h1.41a.43.43,0,0,1,.19,0,.67.67,0,0,1,.18.11.52.52,0,0,1,.12.17.35.35,0,0,1,.05.2v9.76c0,.34-.17.51-.53.51h-1.41a.45.45,0,0,1-.51-.51Z"/><path class="cls-1" d="M307.53,40a4.26,4.26,0,0,1-1.26-.21,3.2,3.2,0,0,1-1-.56,2.71,2.71,0,0,1-.69-.91,2.85,2.85,0,0,1-.25-1.23V31.37h-1a.51.51,0,0,1-.37-.11.46.46,0,0,1-.12-.36V29.68a.45.45,0,0,1,.12-.35.63.63,0,0,1,.37-.1h1V27.44a.37.37,0,0,1,.11-.27,1,1,0,0,1,.33-.17l.35-.12.42-.14a3.31,3.31,0,0,1,.42-.12,1.55,1.55,0,0,1,.34,0c.17,0,.29,0,.34.14a.82.82,0,0,1,.08.38v1.07c0,.35,0,.71,0,1.06h1.23a.47.47,0,0,1,.34.12.5.5,0,0,1,.11.36v1.15a.59.59,0,0,1-.11.39.47.47,0,0,1-.34.12h-1.23V33c0,.2,0,.38,0,.55v2.2a.08.08,0,0,0,0,0v1.11a1.25,1.25,0,0,0,.22.81,1,1,0,0,0,.72.25.35.35,0,0,1,.28.12.48.48,0,0,1,.1.31v1.18a.45.45,0,0,1-.12.34A.46.46,0,0,1,307.53,40Z"/><path class="cls-1" d="M322.57,39.52a.49.49,0,0,1-.06.25.61.61,0,0,1-.17.15.78.78,0,0,1-.23.08l-.28,0h-1.06a.44.44,0,0,1-.38-.15.91.91,0,0,1-.15-.36l-.06-.72a5.09,5.09,0,0,1-.65.55,4.28,4.28,0,0,1-.78.45,4.35,4.35,0,0,1-.88.3,4.42,4.42,0,0,1-1,.11,5.62,5.62,0,0,1-1.48-.2,6.24,6.24,0,0,1-1.33-.56,5.61,5.61,0,0,1-2-2,6.11,6.11,0,0,1-.56-1.34,5.57,5.57,0,0,1-.2-1.48,5.64,5.64,0,0,1,.2-1.49,5.84,5.84,0,0,1,.56-1.33,5.32,5.32,0,0,1,.87-1.13,5.73,5.73,0,0,1,2.45-1.43,5.61,5.61,0,0,1,1.48-.19,4.41,4.41,0,0,1,1.95.43,4.68,4.68,0,0,1,.8.5,5.71,5.71,0,0,1,.66.64l.12-.9a1.48,1.48,0,0,1,.08-.25.76.76,0,0,1,.09-.16.29.29,0,0,1,.14-.08.72.72,0,0,1,.22,0h.85l.27,0a1.35,1.35,0,0,1,.24.08.46.46,0,0,1,.18.16.43.43,0,0,1,.06.24Zm-8.83-4.9a3.5,3.5,0,0,0,.9,2.35,3.31,3.31,0,0,0,1,.73,3,3,0,0,0,1.25.26,3.27,3.27,0,0,0,1.29-.26,3.32,3.32,0,0,0,1.73-1.8,3.28,3.28,0,0,0,0-2.56,3.32,3.32,0,0,0-1.73-1.8,3.11,3.11,0,0,0-1.29-.27,2.89,2.89,0,0,0-1.25.27,3.31,3.31,0,0,0-1,.73,3.5,3.5,0,0,0-.9,2.35Z"/><path class="cls-1" d="M326.49,26.54a.52.52,0,0,1,.12-.36A.44.44,0,0,1,327,26h1.48a.44.44,0,0,1,.32.15.46.46,0,0,1,.15.36v13a.47.47,0,0,1-.14.38.56.56,0,0,1-.38.13H327a.52.52,0,0,1-.39-.13.54.54,0,0,1-.12-.38Z"/><path class="cls-1" d="M271,63.71a.39.39,0,0,1-.07.25.33.33,0,0,1-.16.15.63.63,0,0,1-.23.08,1.27,1.27,0,0,1-.28,0h-1.06a.46.46,0,0,1-.38-.14,1.15,1.15,0,0,1-.16-.37l-.05-.72a6.08,6.08,0,0,1-.66.56,5.35,5.35,0,0,1-.77.45,5.15,5.15,0,0,1-.89.29,4.35,4.35,0,0,1-1,.11,5.49,5.49,0,0,1-1.47-.2,5.77,5.77,0,0,1-1.33-.56,5.26,5.26,0,0,1-1.12-.87,5.58,5.58,0,0,1-1.43-2.46,5.65,5.65,0,0,1,0-3A5.77,5.77,0,0,1,260.5,56a5.69,5.69,0,0,1,2-2,5.77,5.77,0,0,1,1.33-.56,5.49,5.49,0,0,1,1.47-.2,5,5,0,0,1,1,.11,4.35,4.35,0,0,1,.92.33,4.13,4.13,0,0,1,.8.5,5,5,0,0,1,.66.64l.12-.91a1.23,1.23,0,0,1,.08-.25.42.42,0,0,1,.09-.16.32.32,0,0,1,.14-.08l.21,0h.85a1.24,1.24,0,0,1,.27,0,.67.67,0,0,1,.25.08.41.41,0,0,1,.17.15.4.4,0,0,1,.07.24Zm-8.83-4.9a3.73,3.73,0,0,0,.23,1.29,3.24,3.24,0,0,0,.67,1.06,3.11,3.11,0,0,0,1,.73,2.94,2.94,0,0,0,1.26.27,3.06,3.06,0,0,0,1.28-.27,3.2,3.2,0,0,0,1-.73,3.32,3.32,0,0,0,.95-2.35,3.28,3.28,0,0,0-.25-1.28,3.32,3.32,0,0,0-.7-1.06,3.2,3.2,0,0,0-1-.73,3.06,3.06,0,0,0-1.28-.27,2.94,2.94,0,0,0-1.26.27,3.11,3.11,0,0,0-1,.73,3.24,3.24,0,0,0-.67,1.06A3.67,3.67,0,0,0,262.13,58.81Z"/><path class="cls-1" d="M283.15,63.45a1.32,1.32,0,0,0,0-.36c0-.14,0-.27,0-.39a5.25,5.25,0,0,1-.65.6,4.52,4.52,0,0,1-.74.49,4.12,4.12,0,0,1-.87.33,4.05,4.05,0,0,1-1,.12,5.78,5.78,0,0,1-1.46-.19,5.37,5.37,0,0,1-1.31-.53,5.61,5.61,0,0,1-1.09-.85,5.32,5.32,0,0,1-.85-1.09,5.64,5.64,0,0,1-.54-1.31,5.82,5.82,0,0,1,0-3,5.79,5.79,0,0,1,.54-1.33,5.87,5.87,0,0,1,.85-1.13,5.34,5.34,0,0,1,1.09-.87,5.45,5.45,0,0,1,1.31-.56,5.36,5.36,0,0,1,1.46-.2,4.28,4.28,0,0,1,1,.12,3.85,3.85,0,0,1,.9.32,4.51,4.51,0,0,1,.78.5,5.78,5.78,0,0,1,.67.63c0-.15.05-.3.07-.45s0-.29.05-.45a.84.84,0,0,1,.15-.37.46.46,0,0,1,.37-.13h1.11a.52.52,0,0,1,.35.14.48.48,0,0,1,.14.35v8.66a6,6,0,0,1-.45,2.42,4.72,4.72,0,0,1-1.22,1.7,5,5,0,0,1-1.79,1,6.8,6.8,0,0,1-2.17.34,5.41,5.41,0,0,1-1-.09,7.7,7.7,0,0,1-.95-.22,5.38,5.38,0,0,1-.89-.37,4.69,4.69,0,0,1-.78-.49.69.69,0,0,1-.18-.16.4.4,0,0,1-.07-.24.39.39,0,0,1,0-.15.59.59,0,0,1,.08-.16l.64-.93a1.2,1.2,0,0,1,.17-.16.25.25,0,0,1,.17-.06l.15,0a.5.5,0,0,1,.19.1,1.62,1.62,0,0,0,.5.3,4.21,4.21,0,0,0,.63.2,3.89,3.89,0,0,0,.65.12l.59,0a4.29,4.29,0,0,0,1.2-.16,3.65,3.65,0,0,0,1-.46,3,3,0,0,0,.73-.74A2.08,2.08,0,0,0,283.15,63.45Zm-6.26-4.66a3.44,3.44,0,0,0,.23,1.29,3.28,3.28,0,0,0,.67,1.07,3.23,3.23,0,0,0,1,.72,2.94,2.94,0,0,0,1.26.27,3.19,3.19,0,0,0,1.26-.26,3.62,3.62,0,0,0,1-.71,3.53,3.53,0,0,0,.7-1,3.39,3.39,0,0,0,.27-1.26v-.14a3.3,3.3,0,0,0-.27-1.25,3.3,3.3,0,0,0-1.74-1.76,3.19,3.19,0,0,0-1.26-.26,2.94,2.94,0,0,0-2.25,1,3.28,3.28,0,0,0-.67,1.07A3.4,3.4,0,0,0,276.89,58.79Z"/><path class="cls-1" d="M298.63,63A6,6,0,0,1,297,64a5.13,5.13,0,0,1-1.95.36,5.49,5.49,0,0,1-2.17-.43,5.71,5.71,0,0,1-1.8-1.19A5.63,5.63,0,0,1,289.85,61a5.37,5.37,0,0,1-.46-2.19,5.75,5.75,0,0,1,.72-2.78A5.44,5.44,0,0,1,291,54.9a5.52,5.52,0,0,1,1.1-.88,5.43,5.43,0,0,1,2.81-.76,5.53,5.53,0,0,1,1.28.15,6.08,6.08,0,0,1,1.19.45,5.72,5.72,0,0,1,1.06.7,5.82,5.82,0,0,1,.86.93A5.12,5.12,0,0,1,300,57a6.52,6.52,0,0,1,.24,1.82c0,.17,0,.3,0,.41a.51.51,0,0,1-.11.27.48.48,0,0,1-.25.15,2,2,0,0,1-.48,0h-7.53a2.71,2.71,0,0,0,.42,1.08,3.3,3.3,0,0,0,.73.8,3.08,3.08,0,0,0,.93.49,3.18,3.18,0,0,0,1,.17,3.65,3.65,0,0,0,.74-.08,4.12,4.12,0,0,0,.65-.2,3.81,3.81,0,0,0,.57-.3,3.31,3.31,0,0,0,.45-.34h0a1.3,1.3,0,0,1,.2-.15.41.41,0,0,1,.19,0,.35.35,0,0,1,.18,0,.7.7,0,0,1,.19.17l.39.47.26.31a1.08,1.08,0,0,1,.15.22.45.45,0,0,1,0,.19C299,62.71,298.85,62.86,298.63,63Zm-3.77-7.66a2.5,2.5,0,0,0-1,.19A3.1,3.1,0,0,0,293,56a3.23,3.23,0,0,0-.69.74,2.87,2.87,0,0,0-.43.92h6a3.37,3.37,0,0,0-.41-1,3,3,0,0,0-1.56-1.22A3.4,3.4,0,0,0,294.86,55.36Z"/><path class="cls-1" d="M304.06,53.67a.5.5,0,0,1,.2-.17.28.28,0,0,1,.2-.07h1.11a.42.42,0,0,1,.37.16.9.9,0,0,1,.16.36l.09.9a3.16,3.16,0,0,1,.48-.57,2.92,2.92,0,0,1,.68-.5,3.6,3.6,0,0,1,.89-.36,4.31,4.31,0,0,1,1.13-.14,4.19,4.19,0,0,1,1.78.36,3.83,3.83,0,0,1,1.32,1,4.61,4.61,0,0,1,.81,1.48,6,6,0,0,1,.27,1.83V63.6a.68.68,0,0,1-.14.46.57.57,0,0,1-.42.15H311.7a.62.62,0,0,1-.45-.12.69.69,0,0,1-.12-.46V58a2.67,2.67,0,0,0-.15-.88,2.3,2.3,0,0,0-.45-.77,2.07,2.07,0,0,0-.72-.54,2.26,2.26,0,0,0-1-.21,2.43,2.43,0,0,0-.81.16,2.6,2.6,0,0,0-.77.45,2.34,2.34,0,0,0-.58.7,2,2,0,0,0-.24.93v5.5c0,.11,0,.21,0,.32a1.11,1.11,0,0,1-.08.29.47.47,0,0,1-.15.21.45.45,0,0,1-.27.07h-1.4a.55.55,0,0,1-.41-.13.5.5,0,0,1-.13-.38V53.93A.43.43,0,0,1,304.06,53.67Z"/><path class="cls-1" d="M324.45,61.38a.63.63,0,0,1,.24-.11l.17,0a.32.32,0,0,1,.24.15l.21.28.6.86a.75.75,0,0,1,.07.12.6.6,0,0,1,0,.12.36.36,0,0,1-.09.24,1.94,1.94,0,0,1-.25.22,6.93,6.93,0,0,1-1.56.85,5.13,5.13,0,0,1-1.83.32,5.49,5.49,0,0,1-1.47-.2,6,6,0,0,1-1.32-.56,5.58,5.58,0,0,1-1.13-.87,6,6,0,0,1-.88-1.12,6.14,6.14,0,0,1-.57-1.34,5.57,5.57,0,0,1-.2-1.48,5.64,5.64,0,0,1,.2-1.49,5.86,5.86,0,0,1,.57-1.33,5.71,5.71,0,0,1,.88-1.13,5.74,5.74,0,0,1,2.45-1.42,5.12,5.12,0,0,1,1.47-.2,5.53,5.53,0,0,1,1.78.28,5.42,5.42,0,0,1,1.49.79h0l.24.21a.31.31,0,0,1,.11.27v.12a.21.21,0,0,1-.05.13l-.69,1.06a.47.47,0,0,1-.38.25.52.52,0,0,1-.32-.14,4,4,0,0,0-1-.6,3.26,3.26,0,0,0-1.19-.22,2.88,2.88,0,0,0-1.24.27,3.45,3.45,0,0,0-1,.75,3.61,3.61,0,0,0-.69,1.09,3.49,3.49,0,0,0-.26,1.32,3.53,3.53,0,0,0,1,2.4,3.23,3.23,0,0,0,1,.73,3.11,3.11,0,0,0,1.25.26,2.85,2.85,0,0,0,1.25-.25A4.31,4.31,0,0,0,324.45,61.38Z"/><path class="cls-1" d="M333.34,67.33a.58.58,0,0,1-.2.27.5.5,0,0,1-.31.09h-1.6a.44.44,0,0,1-.32-.08.25.25,0,0,1-.09-.2.62.62,0,0,1,0-.17c0-.07,0-.11,0-.12l1.49-3.82-3.79-9.23V54a.46.46,0,0,1-.05-.21.31.31,0,0,1,.1-.23.49.49,0,0,1,.32-.09h1.54a.5.5,0,0,1,.5.36l.15.4c.11.32.24.67.38,1.07l.44,1.21c.16.42.31.84.47,1.27s.3.81.44,1.18.26.71.38,1,.2.53.27.7L336,53.8a.58.58,0,0,1,.2-.27.5.5,0,0,1,.31-.09h1.6a.46.46,0,0,1,.32.08.25.25,0,0,1,.09.2.62.62,0,0,1,0,.17.25.25,0,0,1,0,.12Z"/></g></g></svg>