<svg xmlns="http://www.w3.org/2000/svg" width="41" height="41" viewBox="0 0 41 41">
  <path id="Subtraction_4" data-name="Subtraction 4" d="M20.5,41a20.631,20.631,0,0,1-4.131-.417A20.382,20.382,0,0,1,9.038,37.5a20.559,20.559,0,0,1-7.427-9.02A20.39,20.39,0,0,1,.417,24.631a20.7,20.7,0,0,1,0-8.263A20.382,20.382,0,0,1,3.5,9.038,20.561,20.561,0,0,1,12.52,1.611,20.389,20.389,0,0,1,16.368.417a20.7,20.7,0,0,1,8.263,0A20.386,20.386,0,0,1,31.962,3.5a20.561,20.561,0,0,1,7.427,9.019,20.384,20.384,0,0,1,1.194,3.848,20.7,20.7,0,0,1,0,8.263,20.385,20.385,0,0,1-3.084,7.33,20.559,20.559,0,0,1-9.02,7.427,20.391,20.391,0,0,1-3.848,1.194A20.631,20.631,0,0,1,20.5,41ZM10.771,6.82a4.022,4.022,0,0,0-4.018,4.018V30.229a4.022,4.022,0,0,0,4.018,4.017H30.162a4.022,4.022,0,0,0,4.017-4.017V10.838A4.022,4.022,0,0,0,30.162,6.82ZM20.52,27.712a7.232,7.232,0,1,1,7.232-7.231A7.24,7.24,0,0,1,20.52,27.712Zm0-12.856a5.625,5.625,0,1,0,5.625,5.625A5.631,5.631,0,0,0,20.52,14.855Zm8.035,0a2.41,2.41,0,1,1,2.411-2.41A2.413,2.413,0,0,1,28.555,14.855Zm0-3.214a.8.8,0,1,0,.8.8A.8.8,0,0,0,28.555,11.641Z" fill="#ffe3b7"/>
</svg>
