<svg id="facebook_1_" data-name="facebook (1)" xmlns="http://www.w3.org/2000/svg" width="47.156" height="47.156" viewBox="0 0 47.156 47.156">
  <path id="Path_80" data-name="Path 80" d="M291.447,508.668q-.295.048-.591.088Q291.152,508.716,291.447,508.668Zm0,0" transform="translate(-264.067 -461.819)" fill="#98772e"/>
  <path id="Path_81" data-name="Path 81" d="M299.622,507.793l-.282.049Zm0,0" transform="translate(-271.77 -461.024)" fill="#98772e"/>
  <path id="Path_82" data-name="Path 82" d="M278.3,510.34q-.345.039-.693.068Q277.957,510.379,278.3,510.34Zm0,0" transform="translate(-252.041 -463.336)" fill="#98772e"/>
  <path id="Path_83" data-name="Path 83" d="M286.778,509.738l-.332.041Zm0,0" transform="translate(-260.063 -462.79)" fill="#98772e"/>
  <path id="Path_84" data-name="Path 84" d="M306.913,506.41l-.249.052Zm0,0" transform="translate(-278.42 -459.769)" fill="#98772e"/>
  <path id="Path_85" data-name="Path 85" d="M324.685,502.113l-.2.056Zm0,0" transform="translate(-294.599 -455.868)" fill="#98772e"/>
  <path id="Path_86" data-name="Path 86" d="M319.277,503.543l-.219.057Zm0,0" transform="translate(-289.673 -457.166)" fill="#98772e"/>
  <path id="Path_87" data-name="Path 87" d="M312.3,505.254l-.232.052Zm0,0" transform="translate(-283.324 -458.719)" fill="#98772e"/>
  <path id="Path_88" data-name="Path 88" d="M273.853,511.09q-.186.016-.373.028Q273.667,511.106,273.853,511.09Zm0,0" transform="translate(-248.292 -464.017)" fill="#98772e"/>
  <path id="Path_89" data-name="Path 89" d="M47.156,23.578A23.578,23.578,0,1,0,23.578,47.156c.139,0,.276,0,.414-.005V28.8H18.927v-5.9h5.066V18.548c0-5.038,3.076-7.78,7.57-7.78A41.7,41.7,0,0,1,36.1,11v5.266H33c-2.445,0-2.918,1.162-2.918,2.867v3.76h5.846l-.762,5.9H30.086V46.245A23.591,23.591,0,0,0,47.156,23.578Zm0,0" fill="#98772e"/>
  <path id="Path_90" data-name="Path 90" d="M265.63,511.43q-.368.024-.739.037Q265.261,511.454,265.63,511.43Zm0,0" transform="translate(-240.494 -464.326)" fill="#98772e"/>
  <path id="Path_91" data-name="Path 91" d="M260.9,511.836q-.2.007-.391.01Q260.7,511.842,260.9,511.836Zm0,0" transform="translate(-236.511 -464.695)" fill="#98772e"/>
</svg>
