<svg xmlns="http://www.w3.org/2000/svg" viewBox="0 0 367.2 146.87"><defs><style>.cls-1{fill:#fff;}</style></defs><title>logo</title><g id="Слой_2" data-name="Слой 2"><g id="Слой_1-2" data-name="Слой 1"><path class="cls-1" d="M0,34.19A32.12,32.12,0,0,1,4.38,17.93a32.86,32.86,0,0,1,5-6.53,31.39,31.39,0,0,1,6.51-5,33.41,33.41,0,0,1,7.69-3.25,32.36,32.36,0,0,1,17.1,0A33.41,33.41,0,0,1,48.4,6.37,32.24,32.24,0,0,1,60,17.93a32.92,32.92,0,0,1,3.24,7.71,31.69,31.69,0,0,1,1.16,8.59,31.24,31.24,0,0,1-1.16,8.55A33.16,33.16,0,0,1,60,50.45a31.38,31.38,0,0,1-5,6.5,32,32,0,0,1-6.52,5,32.48,32.48,0,0,1-7.69,3.22A32.25,32.25,0,0,1,15.88,62a32.58,32.58,0,0,1-6.51-5A32,32,0,0,1,0,34.19Zm12.17-.09a20.64,20.64,0,0,0,1.54,8,20.29,20.29,0,0,0,4.21,6.45,20,20,0,0,0,6.32,4.34,19.37,19.37,0,0,0,7.9,1.6A19.23,19.23,0,0,0,40,52.85a20.37,20.37,0,0,0,6.34-4.34,20,20,0,0,0,4.24-6.45,21.34,21.34,0,0,0,0-15.87A20,20,0,0,0,40,15.36a19.23,19.23,0,0,0-7.85-1.6,19.37,19.37,0,0,0-7.9,1.6,19.78,19.78,0,0,0-6.32,4.36A20.64,20.64,0,0,0,12.17,34.1Z"/><path class="cls-1" d="M77,4.83c0-1.32.64-2,1.9-2h23.92a18.37,18.37,0,0,1,7.84,1.66A19.58,19.58,0,0,1,116.82,9a20.42,20.42,0,0,1,5.45,13.9,19.89,19.89,0,0,1-1.41,7.39,20.21,20.21,0,0,1-4,6.32A19.51,19.51,0,0,1,110.8,41,18,18,0,0,1,103,42.65H89.17V63.59c0,1.2-.63,1.81-1.89,1.81H78.84A1.62,1.62,0,0,1,77,63.59Zm33,18a8.94,8.94,0,0,0-.67-3.39,9.64,9.64,0,0,0-1.86-3,9.42,9.42,0,0,0-2.83-2.09,8.1,8.1,0,0,0-3.58-.8H89.17V32H101a8.31,8.31,0,0,0,3.54-.76,9,9,0,0,0,2.85-2.05,9.58,9.58,0,0,0,1.88-2.95A9.22,9.22,0,0,0,110,22.79Z"/><path class="cls-1" d="M134.66,4.87c0-1.35.61-2,1.85-2h40.6a1.86,1.86,0,0,1,1.56.61A2.51,2.51,0,0,1,179.14,5v7.44A1.93,1.93,0,0,1,177,14.39H147.08V27.15h23.08a1.74,1.74,0,0,1,1.35.36A1.91,1.91,0,0,1,172,29v7.62A2.26,2.26,0,0,1,171.6,38a1.55,1.55,0,0,1-1.35.59H147.08V53.86h31a1.9,1.9,0,0,1,1.56.5,2.6,2.6,0,0,1,.38,1.57v7.69c0,1.19-.62,1.78-1.85,1.78h-41.7A2.12,2.12,0,0,1,135.2,65a1.6,1.6,0,0,1-.54-1.35Z"/><path class="cls-1" d="M192.19,4.75a1.92,1.92,0,0,1,.49-1.35A1.71,1.71,0,0,1,194,2.85h9.69a2.4,2.4,0,0,1,1.12.27,2.77,2.77,0,0,1,1,.87l14.28,20.4q7.06,10.14,14.27,20.41V4.45A1.91,1.91,0,0,1,235,3.27a1.83,1.83,0,0,1,1.22-.42h8.13a2.19,2.19,0,0,1,1.45.51,1.63,1.63,0,0,1,.61,1.34v59c0,1.15-.66,1.73-2,1.73h-9.14a2.21,2.21,0,0,1-1.73-1.14q-7.41-10.74-14.76-21.46T204.07,21.3V63.55a2,2,0,0,1-.44,1.39,2.07,2.07,0,0,1-1.5.46H194a1.82,1.82,0,0,1-1.41-.49,1.9,1.9,0,0,1-.44-1.32Z"/><path class="cls-1" d="M2.44,85.37c0-1.32.63-2,1.9-2H30.68a17.46,17.46,0,0,1,6.88,1.37,17.88,17.88,0,0,1,5.6,3.73A17.45,17.45,0,0,1,48.27,101a16.44,16.44,0,0,1-4.59,11.54,17.9,17.9,0,0,1,3.12,2.91,20.09,20.09,0,0,1,2.39,3.53,18.7,18.7,0,0,1,1.56,4,17.12,17.12,0,0,1,.55,4.35,18.24,18.24,0,0,1-1.41,7.12,19.62,19.62,0,0,1-3.83,5.94,18,18,0,0,1-5.71,4.07,16.86,16.86,0,0,1-7,1.49h-29A2.09,2.09,0,0,1,3,145.5a1.69,1.69,0,0,1-.53-1.37Zm33.66,15.8a7.77,7.77,0,0,0-.57-3,7.13,7.13,0,0,0-4-4,8.22,8.22,0,0,0-3.1-.57H14.62v15.25H28.29a8.18,8.18,0,0,0,3.12-.59,7.36,7.36,0,0,0,4.1-4.07A7.89,7.89,0,0,0,36.1,101.17ZM38.83,127a7.92,7.92,0,0,0-.5-2.8,8.8,8.8,0,0,0-1.39-2.47,8.05,8.05,0,0,0-2.11-1.83,7.84,7.84,0,0,0-2.66-1l-1.71-.23a14.55,14.55,0,0,0-1.75-.11H14.62v17.11H28.71c.59,0,1.17,0,1.73-.07a14.27,14.27,0,0,0,1.69-.23,6.78,6.78,0,0,0,2.65-1,8.39,8.39,0,0,0,2.14-1.89A9.05,9.05,0,0,0,38.33,130,8.66,8.66,0,0,0,38.83,127Z"/><path class="cls-1" d="M60.74,85.37c0-1.32.61-2,1.85-2H88.37a20,20,0,0,1,8,1.6,20.91,20.91,0,0,1,6.46,4.34,20.08,20.08,0,0,1,4.34,6.45,19.73,19.73,0,0,1,1.58,7.87,19.21,19.21,0,0,1-.8,5.56,20,20,0,0,1-2.23,4.93,20.34,20.34,0,0,1-7.79,7.2l11,21.61a3.11,3.11,0,0,0,.29.84,2,2,0,0,1,.21.89q0,1.26-1.47,1.26H98.1a2,2,0,0,1-2-1.56l-10.2-20.21c-.45,0-.93,0-1.45,0l-2.15,0H73v19.92c0,1.21-.64,1.81-1.93,1.81H62.59a2,2,0,0,1-1.35-.44,1.74,1.74,0,0,1-.5-1.37Zm35.5,18.35a9.4,9.4,0,0,0-.67-3.51A9.84,9.84,0,0,0,90.77,95a9.46,9.46,0,0,0-3.67-1l-2.88-.07-2.93,0H73v19.55h12.7a14.92,14.92,0,0,0,1.58-.09,9.77,9.77,0,0,0,3.65-.92,9,9,0,0,0,2.84-2.12,9.92,9.92,0,0,0,2.48-6.62Z"/><path class="cls-1" d="M247.67,114.73a30.64,30.64,0,0,1-1.14,8.4,31.34,31.34,0,0,1-3.2,7.5,30.89,30.89,0,0,1-11.39,11.12,32.39,32.39,0,0,1-16.1,4.19H195.61a2.6,2.6,0,0,1-1.35-.34,1.51,1.51,0,0,1-.59-1.43V85.37a1.73,1.73,0,0,1,1.94-2h20.23a32,32,0,0,1,12.5,2.43,31.63,31.63,0,0,1,10.1,6.65,31.17,31.17,0,0,1,6.76,9.94A30.64,30.64,0,0,1,247.67,114.73ZM205.84,94.94V134.4h4q3.16,0,6.32-.12a20.41,20.41,0,0,0,7.71-1.71,19.83,19.83,0,0,0,6.13-4.24,19.09,19.09,0,0,0,4-6.22,20,20,0,0,0,1.46-7.65,19.62,19.62,0,0,0-1.58-7.95,18.9,18.9,0,0,0-4.32-6.18,19.58,19.58,0,0,0-6.4-4,21.55,21.55,0,0,0-7.8-1.41Z"/><path class="cls-1" d="M298,119.79a1.9,1.9,0,0,1,.47-1.35,1.78,1.78,0,0,1,1.39-.51h6.86a2.11,2.11,0,0,1,1.35.51,1.62,1.62,0,0,1,.63,1.35v19.33a2,2,0,0,1-.25,1,2.56,2.56,0,0,1-.93.88s0,0,0,0,0,0,0,0a29.71,29.71,0,0,1-4.26,2.49,31.25,31.25,0,0,1-4.76,1.83,38.74,38.74,0,0,1-5.09,1.14,35.32,35.32,0,0,1-5.23.4,32.06,32.06,0,0,1-8.55-1.14,31.54,31.54,0,0,1-7.68-3.24A32.65,32.65,0,0,1,260.39,131a31.28,31.28,0,0,1-3.25-7.67,32.91,32.91,0,0,1,0-17.1,31.51,31.51,0,0,1,3.25-7.68,32.57,32.57,0,0,1,5-6.53,32,32,0,0,1,6.51-5.06,32.58,32.58,0,0,1,7.69-3.26,31.44,31.44,0,0,1,8.57-1.16,34.21,34.21,0,0,1,6,.53,31.35,31.35,0,0,1,5.75,1.58c.7.28,1.53.63,2.5,1a25.41,25.41,0,0,1,2.76,1.39,12.94,12.94,0,0,1,2.21,1.56,2.17,2.17,0,0,1,.91,1.55,2.82,2.82,0,0,1-.38,1.08c-.25.49-.57,1-.95,1.66s-.81,1.26-1.28,1.92-.94,1.26-1.39,1.79-.86,1-1.22,1.33-.65.52-.85.52a2.2,2.2,0,0,1-.61-.1,2.31,2.31,0,0,1-.73-.4,22.76,22.76,0,0,0-6-3,21.49,21.49,0,0,0-6.78-1.1,19.93,19.93,0,0,0-14.7,6.24,21.29,21.29,0,0,0-5.73,14.57,20.24,20.24,0,0,0,1.63,8.07,21.23,21.23,0,0,0,4.38,6.57,20.45,20.45,0,0,0,6.46,4.42,20.14,20.14,0,0,0,10.95,1.39,25.11,25.11,0,0,0,2.85-.59,18.91,18.91,0,0,0,2.38-.8,11.91,11.91,0,0,0,1.72-.86Z"/><path class="cls-1" d="M321.8,85.42c0-1.35.62-2,1.85-2h40.6a1.83,1.83,0,0,1,1.56.62,2.48,2.48,0,0,1,.47,1.54V93a2,2,0,0,1-.53,1.35,2,2,0,0,1-1.58.6H334.22V107.7H357.3a1.66,1.66,0,0,1,1.35.36,1.88,1.88,0,0,1,.51,1.49v7.62a2.26,2.26,0,0,1-.42,1.35,1.53,1.53,0,0,1-1.35.59H334.22V134.4h31a1.85,1.85,0,0,1,1.55.51,2.56,2.56,0,0,1,.38,1.56v7.7c0,1.18-.61,1.77-1.85,1.77h-41.7a2.07,2.07,0,0,1-1.3-.42,1.58,1.58,0,0,1-.55-1.35Z"/><path class="cls-1" d="M182.12,133.77a2,2,0,0,1,1.31.46,1.73,1.73,0,0,1,.54,1.39V144a2.13,2.13,0,0,1-.5,1.34,1.65,1.65,0,0,1-1.35.63H123.28c-1.24,0-1.86-.66-1.86-2v-8.35a1.64,1.64,0,0,1,1.86-1.85Z"/>
</g></g></svg>