<svg xmlns="http://www.w3.org/2000/svg" width="20.5" height="70.289" viewBox="0 0 20.5 70.289">
  <g id="big-ben-in-london" transform="translate(-6.968)">
    <path id="Path_55" data-name="Path 55" d="M20.673,26l-3.433,3.426-.025,0c-.018,0-.025.018-.046.018L14.66,26.92l-.679.69,2.533,2.526a.707.707,0,1,0,1.415,0s-.007-.011-.007-.018l3.433-3.43Zm4.334,40.664V36.506h.582V24.2h.2v-.95H24.438V21.822h0l-3.173-5.934h.014V11.761h-.061C20.973,11.19,17.622,1.486,17.382,0H17.05c-.236,1.486-3.6,11.19-3.83,11.761h-.071v4.123h0L10,21.822H10v1.429H8.64v.95h.214V36.5h.579V66.666H6.968v3.623h20.5V66.666ZM17.214,36.22A6.082,6.082,0,1,1,23.3,30.136,6.083,6.083,0,0,1,17.214,36.22Z" transform="translate(0)" fill="#ffe3b7"/>
  </g>
</svg>
